<?xml version="1.0" encoding="UTF-8" standalone="no"?>
<!DOCTYPE svg PUBLIC "-//W3C//DTD SVG 1.1//EN" "http://www.w3.org/Graphics/SVG/1.1/DTD/svg11.dtd">
<svg width="100%" height="100%" viewBox="0 0 5000 5000" version="1.1" xmlns="http://www.w3.org/2000/svg" xmlns:xlink="http://www.w3.org/1999/xlink" xml:space="preserve" xmlns:serif="http://www.serif.com/" style="fill-rule:evenodd;clip-rule:evenodd;stroke-linecap:round;stroke-linejoin:round;stroke-miterlimit:2;">
    <g>
        <path d="M2875.34,2425.46L2894.89,2425.46L2894.89,1919.94C2894.89,1793.47 2998.37,1690 3124.83,1690L3124.85,1690C3251.32,1690 3354.79,1793.47 3354.79,1919.94L3354.79,2425.79C3361.34,2426.01 3367.86,2426.4 3374.35,2426.87L3374.35,2118.71C3374.35,1992.25 3477.81,1888.78 3604.29,1888.78L3604.3,1888.78C3730.78,1888.78 3834.24,1992.25 3834.24,2118.71C3834.24,2678.7 3844.19,3236.36 3844.19,3796.98C3844.19,4075.76 3616.1,4303.85 3337.33,4303.85L2452.79,4303.85C2208.24,4303.85 2002.71,4128.32 1955.92,3897.04L1183.16,2398.37C1118.95,2273.84 1171.72,2127.52 1300.46,2073.23L1300.48,2073.23C1429.22,2018.93 1587.08,2076.43 1651.3,2200.96L1935.98,2753.06L1935.98,926.099C1935.98,799.626 2039.45,696.154 2165.94,696.154L2165.95,696.154C2292.42,696.154 2395.88,799.626 2395.88,926.099L2395.88,2428.7C2402.37,2427.97 2408.89,2427.35 2415.43,2426.87L2415.43,1770.87C2415.43,1644.39 2518.91,1540.92 2645.39,1540.92L2645.4,1540.92C2771.86,1540.92 2875.34,1644.39 2875.34,1770.87L2875.34,2425.46Z" style="fill:white;stroke:white;stroke-width:100px;"/>
    </g>
</svg>
